# xmcd
#
# Track frame offsets:
#	150
#	16127
#	35499
#	52816
#	72852
#	92886
#	120369
#	135497
#	159075
#	178952
#	197958
#	216854
#	234439
#	255798
#	269600
#	291137
#	309688
#	326564
#	342400
#
# Disc length: 4779 seconds
#
# Revision: 1
# Processed by: cddbd v1.5.2PL0 Copyright (c) Steve Scherf et al.
# Submitted via: EasyCDDAExtractor 7.0.6.1
#
DISCID=0e12a913
DTITLE=Various Artist - Youg Forever
DYEAR=1900
DGENRE=Mix
TTITLE0=You're Beautiful
TTITLE1=Goodbye My Lover
TTITLE2=Unchained Melody
TTITLE3=Dance With My Father
TTITLE4=La Colombe
TTITLE5=Still Loving You
TTITLE6=Time To Grow
TTITLE7=Wind Of Change
TTITLE8=Power Of Love
TTITLE9=Can You Feel the Love Tonight
TTITLE10=Candle In The Wind
TTITLE11=Bad Day
TTITLE12=This, I Promise Yo
TTITLE13=Emmene-Moi Danser Ce Soir
TTITLE14=La Peine Max
TTITLE15=Et Si Tu n'Existais Pas
TTITLE16=Quand Je t'Aime
TTITLE17=Sous Le Vent
TTITLE18=S'il Suffisait d'Aimer
EXTD=
EXTT0=
EXTT1=
EXTT2=
EXTT3=
EXTT4=
EXTT5=
EXTT6=
EXTT7=
EXTT8=
EXTT9=
EXTT10=
EXTT11=
EXTT12=
EXTT13=
EXTT14=
EXTT15=
EXTT16=
EXTT17=
EXTT18=
PLAYORDER=
